<svg width="30" height="34" viewBox="0 0 30 34" fill="none" xmlns="http://www.w3.org/2000/svg">
<path d="M28.3806 28.4589L27.2138 14.0011C27.0626 12.1277 25.5463 10.6868 23.7259 10.6868H21.6964H7.69644H5.66691C3.8466 10.6868 2.33017 12.1277 2.179 14.0011L1.01233 28.4589C0.842284 30.5661 2.4526 32.3735 4.50024 32.3735H24.8926C26.9403 32.3735 28.5507 30.5661 28.3806 28.4589Z" stroke="black" stroke-width="1.5" stroke-linecap="round" stroke-linejoin="round"/>
<path d="M21.6965 17.9157V10.6868V8.87955C21.6965 6.96232 20.9591 5.12362 19.6462 3.76793C18.3336 2.41225 16.5531 1.65063 14.6965 1.65063C12.84 1.65063 11.0595 2.41225 9.74678 3.76793C8.43404 5.12362 7.69653 6.96232 7.69653 8.87955V10.6868V17.9157" stroke="black" stroke-width="1.5" stroke-linecap="round" stroke-linejoin="round"/>
</svg>
