<svg width="194" height="47" viewBox="0 0 194 47" fill="none" xmlns="http://www.w3.org/2000/svg">
<path d="M189.631 34.0403C189.731 33.4916 189.521 33.0826 189.043 32.9728C188.893 32.9329 188.723 32.9529 188.564 32.9828C184.464 33.761 181.172 29.9698 182.429 25.9093C182.549 25.5103 182.738 25.1112 182.948 24.7421C183.287 24.1534 183.078 23.5249 182.439 23.3653C180.853 22.9762 179.676 22.0584 178.928 20.5918C177.472 17.7385 178.739 14.1568 181.681 12.8C182.3 12.5107 182.439 12.2014 182.31 11.533C181.841 9.22838 182.509 7.29291 184.305 5.73655C184.384 5.66672 184.424 5.58691 184.484 5.51707C183.058 3.93078 181.332 3.1127 179.287 3.1127C177.542 3.1127 175.946 3.39204 174.499 3.94076C173.053 4.49945 171.786 5.29758 170.709 6.33515C169.632 7.37273 168.684 8.52004 167.886 9.75714C167.088 10.9942 166.33 12.4309 165.642 14.0571C165.562 14.2566 165.382 14.7155 165.103 15.4438C164.824 16.1721 164.564 16.8007 164.315 17.3294C164.066 17.8682 163.836 18.2672 163.617 18.5466C162.609 17.7185 161.432 16.5512 160.106 15.0647C158.779 13.5782 157.552 12.1914 156.435 10.9144C155.318 9.63742 154.091 8.38037 152.774 7.13329C151.457 5.89618 150.021 4.90849 148.465 4.19017C146.909 3.46188 145.303 3.10272 143.657 3.10272C140.246 3.10272 137.892 3.89087 136.595 5.46719C135.298 7.0435 134.65 9.57756 134.65 13.0694C134.65 17.8083 133.932 22.2579 132.505 26.4281C132.356 26.8871 131.927 27.9945 131.239 29.7104C130.78 28.3636 130.271 27.1664 129.712 26.1288C129.144 25.0813 128.635 23.8641 128.166 22.4874C127.698 21.1106 127.468 19.8136 127.468 18.6064C127.468 17.8183 127.648 16.9802 128.007 16.0923C128.366 15.2144 128.755 14.4462 129.184 13.7877C129.613 13.1293 130.002 12.371 130.361 11.4931C130.72 10.6251 130.899 9.7771 130.899 8.96899C130.899 7.00359 130.261 5.547 128.994 4.59922C127.727 3.65143 126.082 3.17256 124.057 3.17256C122.132 3.17256 120.456 3.73125 119.019 4.83866C117.583 5.94606 116.526 7.33282 115.847 8.99892C115.169 10.665 114.84 12.4409 114.84 14.3264C114.84 15.394 115.199 16.9304 115.907 18.9357C116.625 20.941 116.975 22.4774 116.975 23.5449C116.975 25.0314 116.406 26.1189 115.269 26.7973C114.132 27.4857 112.765 27.8249 111.179 27.8249C110.301 27.8249 109.484 27.785 108.696 27.7051C107.917 27.6253 107.06 27.4657 106.152 27.2163C105.244 26.9669 104.466 26.6376 103.818 26.2386C103.169 25.8295 102.631 25.2708 102.202 24.5625C101.763 23.8442 101.544 23.0161 101.544 22.0683C101.544 20.9809 101.753 19.8136 102.182 18.5865C102.611 17.3594 103.07 16.2619 103.578 15.3141C104.087 14.3664 104.546 13.2689 104.975 12.0418C105.404 10.8147 105.613 9.65738 105.613 8.55995C105.613 6.95371 105.115 5.65674 104.127 4.65908C103.14 3.67139 101.833 3.17256 100.227 3.17256C98.0424 3.17256 96.1871 3.82104 94.631 5.10803C93.0849 6.39501 92.3069 8.111 92.3069 10.256C92.3069 10.9942 92.3767 12.1017 92.5164 13.5882C92.656 15.0747 92.7258 16.1821 92.7258 16.9204C92.7258 18.0677 92.4765 19.3048 91.9777 20.6217C91.479 21.9386 90.9403 23.0959 90.3518 24.1036C90.1025 24.5326 89.873 24.9915 89.6337 25.4803C89.3643 25.0913 89.0551 24.7221 88.696 24.4029C87.1898 23.046 85.0951 22.3676 82.4219 22.3676C80.4768 22.3676 77.5941 22.7068 73.7538 23.3952C69.9234 24.0836 67.0208 24.4228 65.0557 24.4228C60.0384 24.4228 57.5347 22.8665 57.5347 19.7537C57.5347 18.8259 57.7641 17.8482 58.223 16.8406C58.6818 15.8329 59.1806 14.945 59.7392 14.1968C60.2977 13.4485 60.7965 12.5606 61.2553 11.5529C61.7142 10.5453 61.9436 9.56759 61.9436 8.63976C61.9436 7.01357 61.4448 5.61683 60.4573 4.44957C59.4698 3.2823 58.2629 2.43428 56.8564 1.90552C55.46 1.36678 53.9637 1.09741 52.3777 1.09741C48.9065 1.09741 46.1834 1.92547 44.1984 3.59157C42.5925 4.9484 41.6449 6.88387 41.3456 9.38801C41.1461 9.11864 40.9466 8.86922 40.7371 8.62978C39.8394 7.63212 38.6125 6.77413 37.0764 6.05581C35.5403 5.33749 34.1239 4.80873 32.8271 4.45954C31.5304 4.11036 29.8746 3.84099 27.8796 3.64146C25.8747 3.44193 24.2588 3.33218 23.0319 3.30225C21.805 3.27232 20.209 3.26235 18.244 3.26235C17.0769 3.26235 16.0495 3.27232 15.1817 3.30225C14.3139 3.33218 13.2665 3.42197 12.0396 3.57162C10.8227 3.72127 9.77535 3.9208 8.89757 4.17022C8.01979 4.42961 7.11208 4.78877 6.17445 5.26765C5.23681 5.74653 4.46875 6.30522 3.88024 6.96368C3.3017 7.61216 2.81294 8.44023 2.42392 9.44787C2.0349 10.4455 1.84538 11.5729 1.84538 12.82C1.84538 14.1269 2.17455 16.0424 2.82291 18.5765C3.47127 21.1106 3.80044 23.0261 3.80044 24.333C3.80044 25.7198 3.31168 27.7151 2.32417 30.309C1.34664 32.903 0.8479 34.9083 0.8479 36.315C0.8479 37.602 1.0873 38.7692 1.57606 39.8068C2.06483 40.8444 2.73314 41.7024 3.60095 42.3808C4.45878 43.0592 5.41636 43.6279 6.45374 44.1068C7.49112 44.5856 8.63822 44.9448 9.88507 45.1942C11.1319 45.4436 12.299 45.6132 13.3962 45.713C14.4835 45.8128 15.6106 45.8626 16.7577 45.8626C17.825 45.8626 18.8524 45.8128 19.82 45.713C20.7875 45.6132 21.8449 45.4137 22.972 45.1044C24.0992 44.7951 25.0767 44.3961 25.8847 43.8972C26.6926 43.3984 27.3809 42.71 27.9195 41.8321C28.4681 40.9541 28.7375 39.9265 28.7375 38.7493C28.7375 38.001 28.7375 38.001 28.0991 36.7739C27.4607 35.5468 25.2662 34.8783 23.1216 31.596C20.9771 28.3137 25.5854 28.3736 26.9619 28.3736C36.5876 28.3736 42.0937 25.7896 43.5201 20.6417C43.6997 21.4997 43.7994 22.2479 43.7994 22.8665C43.7994 24.2931 43.3605 26.2086 42.4927 28.603L42.0139 29.8202C41.1461 32.2246 40.7072 34.1301 40.7072 35.5568C40.7072 38.1108 41.4553 40.2657 42.9715 42.0117C44.4777 43.7576 46.4926 44.6255 49.0063 44.6255H71.28C72.6466 44.6255 74.073 44.4958 75.5492 44.2265C77.0255 43.9571 78.5018 43.568 79.978 43.0692C81.4543 42.5604 82.8508 41.9019 84.1575 41.0738C85.4642 40.2558 86.6312 39.3379 87.6487 38.3203C88.1574 37.8215 88.6062 37.2727 89.0152 36.6841C89.4541 37.7416 89.9828 38.6795 90.6311 39.4776C91.4291 40.4653 92.4066 41.3432 93.5637 42.1114C94.7108 42.8796 95.9178 43.4882 97.1646 43.9371C98.4115 44.3961 99.788 44.7652 101.294 45.0645C102.8 45.3638 104.237 45.5633 105.603 45.6731C106.97 45.7828 108.396 45.8327 109.883 45.8327C111.209 45.8327 112.476 45.8028 113.693 45.7329C114.9 45.6631 116.276 45.5234 117.812 45.3139C119.349 45.1044 120.755 44.8251 122.022 44.4859C123.289 44.1367 124.555 43.6478 125.832 43.0093C127.099 42.3708 128.166 41.6425 129.024 40.8244C129.194 40.6648 129.353 40.4852 129.513 40.3056C129.603 40.585 129.712 40.8643 129.832 41.1138C130.281 42.0117 130.919 42.7499 131.747 43.2986C132.575 43.8573 133.443 44.3063 134.351 44.6654C135.248 45.0246 136.306 45.284 137.513 45.4436C138.72 45.6032 139.767 45.703 140.655 45.7529C141.533 45.8028 142.53 45.8227 143.647 45.8227C145.712 45.8227 147.497 45.4536 149.014 44.7253C150.53 43.987 151.717 42.9694 152.585 41.6425C153.452 40.3256 154.081 38.8491 154.47 37.2229C154.869 35.5967 155.068 33.7909 155.068 31.8055C155.068 30.6782 154.729 29.2415 154.061 27.5056C150.31 20.6018 153.263 21.7591 154.001 22.5971C154.729 23.4351 155.567 24.2732 156.495 25.1112C157.422 25.9393 158.45 26.5977 159.577 27.0567C160.694 27.5256 161.881 27.755 163.128 27.755C165.821 27.755 168.026 27.0367 169.741 25.61C170.559 24.9316 171.297 24.1036 171.966 23.1358C172.365 22.5472 174.05 20.6018 173.342 23.3254C173.013 24.6722 172.614 25.9492 172.155 27.1664C171.686 28.3736 171.228 29.5807 170.759 30.7779C170.29 31.9751 169.891 33.2422 169.572 34.589C169.243 35.9259 169.083 37.2129 169.083 38.44C169.083 39.6272 169.263 40.6548 169.632 41.5228C170.001 42.3808 170.46 43.0592 171.028 43.5481C171.597 44.0369 172.325 44.416 173.232 44.6954C174.14 44.9747 175.008 45.1543 175.846 45.2341C176.694 45.3139 177.671 45.3538 178.808 45.3538C179.876 45.3538 180.823 45.3439 181.631 45.3139C182.439 45.284 183.357 45.2142 184.364 45.1044C185.372 44.9947 186.25 44.835 186.998 44.6255C187.736 44.416 188.514 44.1467 189.322 43.8174C190.12 43.4882 190.798 43.0692 191.357 42.5504C191.915 42.0316 192.414 41.433 192.873 40.7546C192.973 40.6049 193.042 40.4353 193.122 40.2757C190.609 39.4776 189.102 36.8537 189.631 34.0403ZM21.1666 16.8505C20.2489 16.3118 19.4709 15.0448 19.8399 14.3664C20.5781 13.0095 25.8946 13.8276 26.0642 14.9849C26.1939 15.9127 23.1915 18.0477 21.1666 16.8505Z" fill="black"/>
</svg>
