<svg width="32" height="34" viewBox="0 0 32 34" fill="none" xmlns="http://www.w3.org/2000/svg">
<path d="M16 1.65063C7.71573 1.65063 1 8.52819 1 17.0121C1 25.496 7.71573 32.3735 16 32.3735C24.2843 32.3735 31 25.496 31 17.0121C31 8.52819 24.2843 1.65063 16 1.65063Z" stroke="black" stroke-width="1.5"/>
<path d="M16 17.012C18.7615 17.012 21 14.7195 21 11.8915C21 9.06352 18.7615 6.771 16 6.771C13.2385 6.771 11 9.06352 11 11.8915C11 14.7195 13.2385 17.012 16 17.012Z" stroke="black" stroke-width="1.5"/>
<path d="M6 28.462C6 25.6974 7.95287 22.1326 11 22.1326H21C24.0472 22.1326 26 25.6974 26 28.462" stroke="black" stroke-width="1.5"/>
</svg>
